<?xml version="1.0" encoding="UTF-8" standalone="no"?>
<!-- Created with Inkscape (http://www.inkscape.org/) -->

<svg
   width="120.0px"
   height="120.0px"
   viewBox="0 0 120.0 120.0"
   version="1.1"
   id="SVGRoot"
   sodipodi:docname="vite.svg"
   inkscape:version="1.2.2 (b0a8486541, 2022-12-01)"
   xmlns:inkscape="http://www.inkscape.org/namespaces/inkscape"
   xmlns:sodipodi="http://sodipodi.sourceforge.net/DTD/sodipodi-0.dtd"
   xmlns="http://www.w3.org/2000/svg"
   xmlns:svg="http://www.w3.org/2000/svg">
  <sodipodi:namedview
     id="namedview3162"
     pagecolor="#ffffff"
     bordercolor="#000000"
     borderopacity="0.25"
     inkscape:showpageshadow="2"
     inkscape:pageopacity="0.0"
     inkscape:pagecheckerboard="0"
     inkscape:deskcolor="#d1d1d1"
     inkscape:document-units="px"
     showgrid="true"
     inkscape:zoom="5.0444649"
     inkscape:cx="71.266232"
     inkscape:cy="69.482098"
     inkscape:window-width="3374"
     inkscape:window-height="1371"
     inkscape:window-x="0"
     inkscape:window-y="0"
     inkscape:window-maximized="1"
     inkscape:current-layer="layer1">
    <inkscape:grid
       type="xygrid"
       id="grid3168" />
  </sodipodi:namedview>
  <defs
     id="defs3157" />
  <g
     inkscape:label="Layer 1"
     inkscape:groupmode="layer"
     id="layer1">
    <path
       d="m 58.527172,119.19032 c -0.397392,-0.23516 -1.085465,-0.62343 -1.529077,-0.86287 -0.44359,-0.23941 -1.975059,-1.08512 -3.403234,-1.87929 -6.021458,-3.34852 -11.26562,-6.22915 -16.184382,-8.8902 -2.880938,-1.55862 -5.436636,-2.95789 -5.67933,-3.10951 -0.242693,-0.15161 -2.355162,-1.33612 -4.694362,-2.63224 -12.533085,-6.944381 -13.44023,-7.495611 -13.44023,-8.167204 0,-0.867003 1.348826,-0.901649 2.964269,-0.0762 0.652309,0.333347 1.284312,0.689139 1.404452,0.790661 0.120224,0.101419 1.299692,0.763526 2.621237,1.471149 1.321525,0.70761 4.172126,2.268861 6.334634,3.469472 9.793658,5.437392 14.281614,7.902912 14.976804,8.227712 0.413135,0.19307 2.688506,1.45651 5.056333,2.80772 2.367828,1.35123 4.871539,2.72874 5.563794,3.06112 0.692235,0.3324 2.58694,1.38376 4.210423,2.33634 l 2.951765,1.73201 1.969048,-1.1455 c 2.329751,-1.35532 5.253169,-3.00411 6.395428,-3.60696 0.448858,-0.23686 2.64518,-1.46087 4.880765,-2.71997 2.235566,-1.2591 4.14173,-2.28928 4.235895,-2.28928 0.173094,0 6.22909,-3.35141 10.762422,-5.9559 2.670752,-1.5344 3.627593,-1.73193 4.055,-0.83718 0.388326,0.81292 -0.42817,1.42469 -5.987139,4.48586 -5.977127,3.29144 -12.623149,6.96483 -18.441458,10.19293 -7.106639,3.94289 -7.309427,4.04762 -7.81544,4.03597 -0.266819,-0.006 -0.810244,-0.20357 -1.207617,-0.4387 z M 55.09937,101.18303 c -1.802087,-1.04366 -3.473137,-2.021769 -3.713396,-2.173549 -0.240241,-0.151819 -2.107907,-1.180198 -4.150295,-2.285424 -2.042367,-1.1052 -5.384426,-2.947346 -7.426814,-4.093646 -2.042367,-1.1463 -5.581042,-3.106383 -7.86369,-4.35573 -2.282648,-1.249368 -6.312801,-3.474948 -8.95587,-4.94579 -2.643071,-1.470822 -6.673223,-3.695237 -8.955872,-4.943124 -5.9252599,-3.23926 -6.2930785,-3.494571 -5.9796604,-4.150722 0.4835569,-1.012357 1.8503159,-0.619373 5.9467304,1.709905 2.206575,1.254698 4.098728,2.281269 4.204735,2.281269 0.105948,0 2.302973,1.223982 4.882132,2.719973 2.57916,1.496012 5.031364,2.877921 5.449342,3.070949 0.801802,0.370301 8.241623,4.468392 18.750956,10.328638 1.533217,0.854972 4.903885,2.703531 7.490402,4.10795 l 4.702707,2.553451 2.724107,-1.404738 c 1.498259,-0.772609 3.110343,-1.594609 3.582381,-1.826685 0.472079,-0.232025 1.848205,-0.988264 3.058114,-1.680461 7.670432,-4.388466 21.347102,-11.551683 22.055541,-11.551683 1.01277,0 1.427049,0.446699 1.082751,1.167482 -0.22092,0.462236 -2.324062,1.757324 -4.649953,2.863213 -0.412209,0.196029 -2.83677,1.501402 -5.387945,2.90086 -2.551175,1.399479 -4.802381,2.544515 -5.002675,2.544515 -0.200435,0 -0.42972,0.128318 -0.509813,0.285038 -0.08001,0.156741 -3.291097,1.995481 -7.135571,4.08605 -3.844474,2.090529 -7.300321,4.015419 -7.67966,4.277499 -1.298727,0.89729 -3.122163,0.48183 -6.518684,-1.48524 z m 55.77397,-10.205058 c -0.95271,-0.765378 -0.0589,-1.70272 3.74981,-3.9328 l 2.51203,-1.470803 V 54.524968 c 0,-21.205832 -0.14374,-31.0494 -0.45307,-31.0494 -0.24919,0 -1.87109,0.791713 -3.6042,1.759357 -1.73313,0.967644 -3.446,1.910216 -3.80642,2.094637 -0.36042,0.184382 -2.12976,1.17068 -3.93184,2.191724 -3.58886,2.033381 -10.558755,5.857113 -11.690699,6.413572 -0.392646,0.193066 -2.442935,1.338064 -4.556149,2.544515 -2.113213,1.206431 -4.040406,2.19352 -4.282617,2.19352 -0.242231,0 -0.440394,0.149242 -0.440394,0.331826 0,0.182408 -0.495116,0.537824 -1.100242,0.789659 -1.047409,0.435882 -3.792385,1.926938 -12.649244,6.870971 -2.169102,1.210833 -4.238711,2.354133 -4.599132,2.540626 -0.360421,0.186354 -1.770604,0.972579 -3.133743,1.746841 -1.36314,0.774282 -2.781846,1.40773 -3.152662,1.40773 -0.370814,0 -2.437065,-0.98707 -4.591633,-2.19352 C 52.98855,50.960594 49.623611,49.104842 47.66548,48.043173 45.707326,46.981521 42.643283,45.283362 40.856475,44.269544 36.615031,41.862959 27.29888,36.734566 26.353457,36.285832 25.946738,36.092766 24.925141,35.528153 24.083213,35.031036 23.241285,34.533939 20.38992,32.94086 17.74685,31.490864 15.10376,30.040889 10.741191,27.644273 8.0522247,26.165041 5.363258,24.685848 2.9550008,23.475568 2.700547,23.475568 c -0.3221836,0 -0.4598152,9.403009 -0.4533216,30.972727 l 0.010013,30.972726 1.8323032,1.042285 c 3.0957265,1.760956 4.7021023,3.035968 4.7021023,3.732093 0,1.151433 -1.4170175,0.752567 -5.1532129,-1.450528 L 0.04975835,86.628736 0.16113284,53.560562 0.27250733,20.492368 1.401518,20.550403 c 0.6209666,0.03198 3.3236444,1.295443 6.0059768,2.807722 2.6823322,1.512298 6.7609552,3.776195 9.0636262,5.030893 2.302653,1.254697 6.298026,3.465767 8.878572,4.913513 2.580567,1.447726 5.011542,2.790172 5.402199,2.983219 0.697784,0.344776 7.200486,3.922297 14.955273,8.22771 2.162529,1.200588 5.013089,2.761883 6.334634,3.469479 1.321545,0.707615 2.501097,1.366412 2.621218,1.464031 0.120224,0.09771 1.319956,0.755467 2.666268,1.461939 l 2.447882,1.284486 3.01304,-1.647997 c 10.31497,-5.641718 14.551348,-7.982368 15.902505,-8.786301 0.841928,-0.500926 1.861192,-1.068717 2.264998,-1.261764 0.780511,-0.373106 9.32954,-5.073949 15.863459,-8.722873 4.944781,-2.761468 12.444551,-6.894107 17.193501,-9.474294 2.00778,-1.090848 3.99181,-1.983358 4.40898,-1.983358 0.68173,0 0.78761,0.645353 1.0459,6.373656 0.45063,9.994132 0.34739,58.862049 -0.12584,59.572427 -0.46129,0.692436 -7.15145,4.948987 -7.7785,4.948987 -0.21993,0 -0.53114,-0.105217 -0.69133,-0.233989 z M 59.02426,86.682806 C 58.667658,86.567914 57.509054,86.000104 56.449523,85.421021 55.39001,84.841919 54.072869,84.131224 53.522547,83.841683 52.138138,83.11328 44.994264,79.189757 38.700401,75.70113 35.808104,74.097945 32.298479,72.154522 30.901244,71.382413 29.503988,70.610284 26.654774,69.030926 24.569645,67.872741 22.484517,66.714537 20.461952,65.609022 20.075075,65.415975 18.249124,64.504948 10.177379,59.946615 9.045394,59.187238 8.1940374,58.616112 7.8630477,58.138893 8.0487269,57.750213 c 0.4394293,-0.91995 1.5762799,-0.690343 4.0695561,0.821936 1.272993,0.772128 2.410649,1.40388 2.528115,1.40388 0.306343,0 8.208552,4.444822 9.03486,5.081923 0.380585,0.29343 0.83652,0.53352 1.013232,0.53352 0.176713,0 2.061266,0.987069 4.187947,2.19352 2.126663,1.206432 5.467255,3.062183 7.423498,4.123854 4.334384,2.352297 10.227658,5.615483 16.479807,9.125095 2.579038,1.447726 5.0192,2.739615 5.422623,2.870893 0.403384,0.131278 0.862333,0.406131 1.019827,0.610884 0.240985,0.313112 2.22682,-0.515417 3.298013,-1.375985 0.120224,-0.09654 5.526419,-3.032 12.013963,-6.523332 6.487544,-3.491312 12.705293,-6.864199 13.817216,-7.495299 1.443012,-0.819015 2.287051,-1.079773 2.948869,-0.911046 0.509974,0.129895 0.927228,0.391265 0.927228,0.580523 0,0.600343 -2.25412,2.075271 -7.426814,4.859521 -13.470143,7.250412 -18.69955,10.102808 -20.137355,10.984026 -0.86366,0.529295 -1.773398,0.962373 -2.02164,0.962373 -0.248243,0 -0.678464,0.219836 -0.956037,0.48853 -0.627541,0.607469 -1.812882,0.873085 -2.667375,0.597777 z M 56.409998,69.43147 c -1.321524,-0.766266 -2.697691,-1.545325 -3.058092,-1.731206 -0.360421,-0.185763 -2.48441,-1.36817 -4.719976,-2.627249 -2.235585,-1.259121 -4.162817,-2.289265 -4.282777,-2.289265 -0.120021,0 -1.632893,-0.83382 -3.362143,-1.852909 C 37.935632,59.132575 30.898128,55.246719 29.40568,54.536043 29.000307,54.342977 28.570347,54.096688 28.450205,53.988665 28.227838,53.788728 16.262304,47.104311 14.980284,46.463834 12.023212,44.986556 7.9172276,42.326319 7.9172276,41.887754 c 0,-1.126658 1.3915858,-0.913317 4.2702924,0.654729 4.288045,2.335714 9.36032,5.119234 10.364928,5.688012 6.569065,3.719142 14.889735,8.320985 15.84336,8.762315 0.417094,0.193066 2.695299,1.45649 5.062666,2.807721 2.367364,1.351212 4.764545,2.693658 5.327029,2.983219 0.562505,0.289541 3.147032,1.697449 5.743441,3.128691 2.596388,1.431261 4.930101,2.602613 5.186003,2.603007 0.48808,5.14e-4 0.736462,-0.129896 6.811093,-3.582496 2.079782,-1.182071 3.98679,-2.149202 4.237785,-2.149202 0.251017,0 0.61361,-0.19741 0.805763,-0.438723 0.305456,-0.383568 6.100786,-3.687005 9.08172,-5.176739 0.579392,-0.289561 3.017342,-1.592507 5.417658,-2.895472 4.578626,-2.48539 5.453122,-2.748024 5.916957,-1.776965 0.408168,0.854529 -0.674423,1.572646 -9.800493,6.500985 -4.445176,2.400524 -9.908993,5.379618 -12.141823,6.62024 -2.232812,1.240603 -4.395339,2.413593 -4.805577,2.60664 -0.410239,0.193067 -1.656918,0.864241 -2.770368,1.49159 -1.113449,0.627349 -2.391289,1.133607 -2.839685,1.125019 -0.448336,-0.0079 -1.896434,-0.642549 -3.217979,-1.408855 z M 50.839873,42.546253 c -0.876325,-0.284072 -0.630235,-1.441249 0.436876,-2.054326 5.859098,-3.366036 7.743389,-4.381592 8.129685,-4.381592 0.250332,0 0.612341,-0.211544 0.804474,-0.470092 0.192193,-0.258568 1.430628,-1.032474 2.752152,-1.719796 1.321545,-0.687341 3.877264,-2.076712 5.67935,-3.08751 9.0234,-5.061314 10.889377,-6.009908 11.603444,-5.898707 2.271229,0.353699 0.73771,1.77513 -5.620486,5.209687 -6.032272,3.258527 -12.665267,6.932977 -13.282133,7.357842 -0.290199,0.199858 -0.636145,0.363412 -0.768749,0.363412 -0.132483,0 -1.664476,0.834708 -3.404201,1.854923 -3.255914,1.909368 -5.44104,3.079536 -5.659729,3.030874 -0.06855,-0.01579 -0.370332,-0.107388 -0.670683,-0.204715 z M 36.333076,34.198599 c -0.844502,-0.817495 0.03157,-1.600758 4.640223,-4.148965 2.363043,-1.306558 7.147049,-3.948771 10.631102,-5.871583 3.484073,-1.922811 7.884718,-4.367851 9.779243,-5.433432 3.607812,-2.029196 5.511262,-2.464682 5.511262,-1.260936 0,0.621448 -0.753049,1.243092 -2.898328,2.39251 -0.448295,0.240209 -2.71862,1.503692 -5.045155,2.807722 -2.326555,1.304051 -6.122961,3.397583 -8.436468,4.65228 -2.313548,1.254718 -4.443066,2.439217 -4.73232,2.632264 -0.600721,0.40088 -7.683701,4.193065 -8.436267,4.516739 -0.27313,0.117466 -0.729105,-0.01189 -1.013292,-0.286599 z M 21.271372,26.007172 c -0.438926,-1.111042 0.04845,-1.557327 4.03168,-3.691525 2.091342,-1.120558 6.063273,-3.304485 8.826484,-4.853165 2.763209,-1.548701 6.695055,-3.723841 8.737442,-4.8337 2.042368,-1.109839 4.631781,-2.540587 5.754217,-3.1794245 2.151491,-1.2245336 3.420082,-1.2429325 3.420082,-0.049547 0,0.7439995 -1.259163,1.4871285 -18.785474,11.0867585 -1.802106,0.987049 -4.915384,2.705305 -6.918429,3.818342 -4.423946,2.458286 -4.727071,2.56015 -5.066002,1.702305 z m -14.8798234,-8.1385 c -0.373549,-0.945554 0.1232413,-1.41223 3.4323045,-3.224414 1.4742949,-0.807367 4.2532659,-2.342545 6.1754929,-3.41148 1.922247,-1.068975 4.576252,-2.5406653 5.897778,-3.2704894 1.321545,-0.7298047 3.484053,-1.9261088 4.805577,-2.6584406 10.019986,-5.5527658 10.484947,-5.73762036 10.484947,-4.1689819 0,1.0011848 -0.289073,1.2071618 -6.334653,4.5134822 -2.64307,1.4454947 -6.925425,3.7973761 -9.516345,5.2264267 -2.590921,1.42907 -5.124023,2.781427 -5.629132,3.00525 -0.505108,0.223843 -1.039267,0.539719 -1.187009,0.70193 -0.365226,0.401039 -6.2058486,3.528683 -7.109898,3.807367 -0.49946,0.153979 -0.816537,-0.0079 -1.0190624,-0.52065 z"
       style="fill:#000000;stroke-width:0.39157"
       id="path2336" />
    <path
       style="fill:#000000;stroke-width:0.198237"
       d="M 58.182584,86.163695 C 56.758247,85.487445 45.56053,79.370802 33.006474,72.411492 27.991076,69.631219 21.880418,66.263392 19.427234,64.927432 13.67504,61.794892 9.2002271,59.193653 8.585775,58.625219 7.8347989,57.930485 8.0514973,57.486663 9.1357519,57.498805 c 0.7033768,0.0079 1.2595641,0.219919 2.5713791,0.98032 0.92063,0.533648 2.655146,1.477422 3.85448,2.097277 1.199334,0.619855 3.518708,1.910588 5.154164,2.868296 1.635456,0.957708 3.41959,1.96129 3.964742,2.230181 1.01887,0.502549 8.715402,4.739368 21.607842,11.894774 4.034125,2.238971 8.65497,4.761267 10.268544,5.6051 3.326599,1.739674 3.293719,1.736569 5.340071,0.504319 0.616557,-0.37127 2.843057,-1.611358 4.94778,-2.755751 7.453012,-4.052397 20.892642,-11.323943 22.128541,-11.972705 1.295888,-0.680251 2.149158,-0.81363 2.839954,-0.443927 0.38866,0.208004 0.389685,0.22538 0.03653,0.618815 -0.916645,1.021183 -2.398031,1.882167 -14.339075,8.333888 -4.742823,2.562537 -10.002506,5.428828 -11.688186,6.369534 -1.685681,0.940706 -3.219231,1.710376 -3.407891,1.710376 -0.188659,0 -0.403891,0.0985 -0.478291,0.218879 -0.182788,0.295756 -1.675238,0.960818 -2.167851,0.966033 -0.218061,0.0023 -0.931715,-0.249925 -1.585897,-0.560519 z"
       id="path3188" />
    <path
       style="fill:#000000;fill-opacity:0;stroke-width:0.198237"
       d=""
       id="path3413" />
    <path
       style="fill:#000000;fill-opacity:0"
       id="path3580"
       d="m 24.761502,36.554983 c 1.004586,0.495326 1.991375,1.025837 2.995697,1.521486 0.65451,0.292417 1.293551,0.653096 2.008969,0.7688 0.284617,0.02776 0.562066,-0.04925 0.842763,-0.08033 0.01558,-0.0014 0.19518,-0.01912 0.210155,-0.0137 0.01954,0.0071 0.143792,0.152115 0.149219,0.156545 0.0875,0.07142 0.184938,0.102706 0.287729,0.146369 0.217204,0.09862 0.455588,0.141105 0.67803,0.222813 0.276912,0.126635 0.138395,0.07081 0.415001,0.168843 0,0 -11.791993,-9.183846 -11.791993,-9.183846 v 0 c -0.597819,-0.202169 0.28312,0.09009 -0.408272,-0.117938 -0.241488,-0.07266 -0.474199,-0.176381 -0.720991,-0.232758 -0.15591,-0.03373 -0.261157,-0.0683 -0.421351,-0.05897 -0.193084,0.01125 -0.368358,0.12223 -0.565334,0.07357 -0.196017,-0.0272 -0.353975,-0.121371 -0.517292,-0.230078 -0.529325,-0.279068 -1.089477,-0.496515 -1.61701,-0.779636 -1.066054,-0.542289 -2.126355,-1.095268 -3.180399,-1.660584 0,0 11.635079,9.299415 11.635079,9.299415 z" />
    <circle
       id="path3582"
       style="fill:#000000;stroke:#000000"
       cx="29.040571"
       cy="36.517441"
       r="0.049899187" />
    <circle
       id="path3584"
       style="fill:#000000;stroke:#000000"
       cx="32.904648"
       cy="38.3279"
       r="0.049899187" />
    <path
       style="fill:#000000;fill-opacity:0"
       d="m 16.651141,27.523593 c 3.122763,2.15216 6.095257,4.542336 8.967905,7.019606 0.557641,0.48089 1.26574,0.771149 1.824787,1.179356 0.342873,0.250359 2.176653,1.784134 2.550367,1.784134"
       id="path3649" />
  </g>
</svg>
